<svg width="129" height="128" viewBox="0 0 129 128" fill="none" xmlns="http://www.w3.org/2000/svg">
<path opacity="0.15" d="M8.93604 110.406C8.93604 111.467 13.5717 112.485 21.8233 113.235C30.0749 113.985 41.2665 114.406 52.936 114.406C64.6056 114.406 75.7971 113.985 84.0487 113.235C92.3003 112.485 96.936 111.467 96.936 110.406C96.936 109.345 92.3003 108.328 84.0487 107.578C75.7971 106.828 64.6056 106.406 52.936 106.406C41.2665 106.406 30.0749 106.828 21.8233 107.578C13.5717 108.328 8.93604 109.345 8.93604 110.406Z" fill="#260F08"/>
<path d="M120.483 24.2197L73.3359 29.9797L77.6559 65.3397L122.429 59.8731C122.742 59.8368 123.044 59.7388 123.319 59.5847C123.593 59.4305 123.834 59.2233 124.028 58.9752C124.221 58.727 124.363 58.4428 124.446 58.1392C124.529 57.8355 124.55 57.5184 124.509 57.2064L120.483 24.2197Z" fill="#87635A"/>
<path d="M75.0615 44.1424L122.208 38.3877L123.643 50.1664L76.5015 55.9237L75.0615 44.1424Z" fill="#AD8A85"/>
<path d="M86.1359 36.7797C86.0496 36.1561 85.7217 35.5913 85.2228 35.2073C84.724 34.8232 84.0942 34.6504 83.4693 34.7263C83.159 34.7658 82.8596 34.8662 82.5883 35.0217C82.3169 35.1773 82.079 35.385 81.8882 35.6328C81.6974 35.8806 81.5574 36.1637 81.4764 36.4658C81.3953 36.7678 81.3748 37.083 81.4159 37.393L81.7093 39.7397C81.7447 40.6346 81.4427 41.5101 80.8633 42.193C80.2838 42.8758 79.469 43.3162 78.5803 43.4268C77.6916 43.5375 76.7937 43.3104 76.0645 42.7905C75.3352 42.2707 74.8278 41.4959 74.6426 40.6197L73.3359 29.953L87.8159 13.073C107.069 12.3797 121.949 16.673 122.829 23.873L124.109 34.4063C124.132 34.5856 124.112 34.7677 124.053 34.9383C123.993 35.1089 123.895 35.2635 123.766 35.3899C123.637 35.5164 123.481 35.6114 123.309 35.6674C123.137 35.7234 122.955 35.739 122.776 35.713C121.792 35.526 120.894 35.0291 120.212 34.295C119.531 33.5609 119.103 32.6281 118.989 31.633C118.951 31.3231 118.852 31.0238 118.697 30.7522C118.543 30.4806 118.337 30.2421 118.091 30.0502C117.844 29.8582 117.562 29.7168 117.261 29.6337C116.96 29.5507 116.646 29.5278 116.336 29.5663C115.71 29.6441 115.141 29.9674 114.753 30.465C114.561 30.7114 114.42 30.9931 114.337 31.2942C114.254 31.5953 114.231 31.9098 114.269 32.2197L114.563 34.5663C114.601 34.8763 114.578 35.1907 114.495 35.4918C114.412 35.7929 114.271 36.0746 114.079 36.321C113.887 36.5674 113.648 36.7736 113.377 36.9278C113.105 37.082 112.806 37.1812 112.496 37.2197C112.186 37.2582 111.872 37.2353 111.57 37.1523C111.269 37.0693 110.988 36.9278 110.741 36.7359C110.495 36.544 110.289 36.3054 110.135 36.0338C109.98 35.7622 109.881 35.4629 109.843 35.153C109.806 34.8431 109.708 34.5435 109.556 34.2712C109.403 33.9989 109.199 33.7594 108.953 33.5663C108.708 33.3731 108.427 33.2301 108.127 33.1455C107.827 33.0609 107.513 33.0362 107.203 33.073C106.893 33.1098 106.593 33.2072 106.321 33.3598C106.049 33.5124 105.809 33.7171 105.616 33.9622C105.226 34.4573 105.048 35.0871 105.123 35.713L105.416 38.0863C105.568 39.3382 105.217 40.5991 104.439 41.5918C103.661 42.5845 102.521 43.2276 101.269 43.3797C100.017 43.5317 98.7565 43.1803 97.7638 42.4026C96.7711 41.625 96.128 40.4848 95.9759 39.233L95.5493 35.6863C95.5133 35.3746 95.4151 35.0733 95.2606 34.8002C95.1061 34.5271 94.8984 34.2877 94.6498 34.0962C94.4012 33.9048 94.1167 33.7652 93.8131 33.6856C93.5096 33.606 93.1932 33.5882 92.8826 33.633C92.2541 33.713 91.6828 34.0382 91.2931 34.5377C90.9035 35.0373 90.7271 35.6706 90.8026 36.2997L90.9626 37.473C91.0404 38.0989 90.8664 38.7301 90.4788 39.2277C90.0912 39.7253 89.5219 40.0486 88.8959 40.1263C88.27 40.2041 87.6388 40.0301 87.1412 39.6425C86.6437 39.255 86.3204 38.6856 86.2426 38.0597L86.1359 36.7797Z" fill="#CAAFA7"/>
<path d="M81.5762 28.9662L115.763 24.8062" stroke="white" stroke-width="0.973958" stroke-linecap="round" stroke-linejoin="round"/>
<path d="M7.94918 51.793C6.98918 60.273 24.6958 69.233 47.4158 71.7396C70.1358 74.2463 89.4958 69.5796 90.4558 61.073L86.5092 96.5663C85.5492 105.046 66.2692 109.9 43.4692 107.233C20.6692 104.566 2.96252 95.7396 3.92252 87.1796L7.94918 51.793Z" fill="#87635A"/>
<path d="M6.32274 65.9531C5.36274 74.4065 23.0694 83.3931 45.8961 85.9798C68.7227 88.5665 87.9494 83.7931 88.9094 75.3131L87.5761 87.0998C86.6161 95.5798 67.3361 100.433 44.5361 97.7665C21.7361 95.0998 4.02941 86.2198 4.98941 77.7398L6.32274 65.9531Z" fill="#AD8A85"/>
<path d="M61.3359 42.7795C58.0292 42.1128 54.5626 41.5528 50.9892 41.1528C26.9892 38.4861 6.5359 43.0461 5.6559 51.5261L3.52257 70.4061C3.47004 70.8701 3.50942 71.3399 3.63846 71.7887C3.76749 72.2375 3.98366 72.6565 4.27462 73.0217C4.86223 73.7594 5.7188 74.2334 6.6559 74.3395C7.593 74.4455 8.53386 74.175 9.2715 73.5874C10.0091 72.9998 10.4831 72.1432 10.5892 71.2061C10.6201 70.7233 10.7488 70.2518 10.9673 69.8202C11.1859 69.3885 11.4898 69.0058 11.8607 68.6951C12.2316 68.3844 12.6617 68.1523 13.125 68.0128C13.5882 67.8733 14.075 67.8293 14.5557 67.8836C15.0365 67.9378 15.5012 68.0891 15.9218 68.3283C16.3423 68.5674 16.71 68.8895 17.0023 69.275C17.2947 69.6605 17.5057 70.1013 17.6227 70.5708C17.7396 71.0402 17.76 71.5285 17.6826 72.0061L16.8826 79.0994C16.7058 80.6625 17.1571 82.2317 18.1373 83.4619C19.1175 84.6922 20.5462 85.4826 22.1092 85.6595C23.6722 85.8363 25.2415 85.3849 26.4717 84.4047C27.702 83.4245 28.4924 81.9958 28.6692 80.4328C28.7753 79.4957 29.2493 78.6391 29.987 78.0515C30.7246 77.4639 31.6655 77.1934 32.6026 77.2994C33.5397 77.4055 34.3962 77.8795 34.9839 78.6172C35.5715 79.3548 35.842 80.2957 35.7359 81.2328L35.4692 83.5794C35.3978 84.5005 35.6858 85.4134 36.273 86.1267C36.8601 86.84 37.7006 87.2982 38.6182 87.4051C39.5358 87.512 40.4592 87.2594 41.1946 86.7003C41.93 86.1412 42.4203 85.3189 42.5626 84.4061L42.6959 83.2061C42.8762 81.6431 43.6701 80.2158 44.9029 79.2381C46.1356 78.2604 47.7062 77.8124 49.2692 77.9928C50.8322 78.1731 52.2596 78.967 53.2373 80.1997C54.215 81.4325 54.6629 83.0031 54.4826 84.5661L54.0826 88.0861C54.0111 89.0072 54.2992 89.9201 54.8863 90.6334C55.4734 91.3467 56.3139 91.8048 57.2316 91.9118C58.1492 92.0187 59.0725 91.7661 59.8079 91.207C60.5434 90.6478 61.0336 89.8256 61.1759 88.9128L62.1092 80.6461C62.1734 80.3585 62.3434 80.1056 62.5855 79.9376C62.8276 79.7696 63.124 79.6989 63.4159 79.7395C63.5718 79.7524 63.7234 79.7971 63.8614 79.8708C63.9993 79.9445 64.1208 80.0457 64.2182 80.1681C64.3156 80.2905 64.387 80.4315 64.4278 80.5825C64.4687 80.7335 64.4783 80.8913 64.4559 81.0461C64.327 82.5881 64.8042 84.1195 65.7861 85.3153C66.768 86.5112 68.1774 87.2772 69.7149 87.4507C71.2525 87.6243 72.7971 87.1917 74.0209 86.2448C75.2447 85.2979 76.0512 83.9113 76.2692 82.3795L76.8026 77.6595C76.9087 76.7224 77.3827 75.8658 78.1203 75.2782C78.8579 74.6906 79.7988 74.42 80.7359 74.5261C81.673 74.6322 82.5296 75.1062 83.1172 75.8439C83.7048 76.5815 83.9753 77.5224 83.8692 78.4595C83.7978 79.3805 84.0858 80.2935 84.673 81.0067C85.2601 81.72 86.1006 82.1782 87.0182 82.2851C87.9358 82.392 88.8592 82.1395 89.5946 81.5803C90.33 81.0212 90.8203 80.1989 90.9626 79.2861L92.7492 63.7395C92.7902 63.4274 92.7687 63.1103 92.686 62.8067C92.6033 62.503 92.4611 62.2188 92.2675 61.9707C92.0739 61.7225 91.8329 61.5153 91.5586 61.3612C91.2842 61.207 90.9819 61.109 90.6692 61.0728L44.6426 55.7395L61.3359 42.7795Z" fill="#CAAFA7"/>
<path d="M59.6559 57.6598L61.3359 42.7798L44.5093 55.9531L59.6559 57.6598Z" fill="#87635A"/>
<path d="M10.2959 52.0596C9.62925 57.9262 26.5359 64.6462 48.0292 67.0996C62.8026 68.7796 75.8959 68.0062 82.8826 65.4462" stroke="white" stroke-width="0.973958" stroke-linecap="round" stroke-linejoin="round"/>
</svg>
